<?xml version="1.0" encoding="utf-8" standalone="no"?>
<!DOCTYPE svg PUBLIC "-//W3C//DTD SVG 1.1//EN"
  "http://www.w3.org/Graphics/SVG/1.1/DTD/svg11.dtd">
<svg height="799.92pt" version="1.1" viewBox="0 0 1082.88 799.92" width="1082.88pt" xmlns="http://www.w3.org/2000/svg" xmlns:xlink="http://www.w3.org/1999/xlink">
 <metadata>
  <rdf:RDF xmlns:cc="http://creativecommons.org/ns#" xmlns:dc="http://purl.org/dc/elements/1.1/" xmlns:rdf="http://www.w3.org/1999/02/22-rdf-syntax-ns#">
   <cc:Work>
    <dc:type rdf:resource="http://purl.org/dc/dcmitype/StillImage"/>
    <dc:date>2022-02-10T21:40:24.031929</dc:date>
    <dc:format>image/svg+xml</dc:format>
    <dc:creator>
     <cc:Agent>
      <dc:title>Matplotlib v3.4.3, https://matplotlib.org/</dc:title>
     </cc:Agent>
    </dc:creator>
   </cc:Work>
  </rdf:RDF>
 </metadata>
 <defs>
  <style type="text/css">*{stroke-linecap:butt;stroke-linejoin:round;}</style>
 </defs>
 <g id="figure_1">
  <g id="patch_1">
   <path d="M 0 799.92 
L 1082.88 799.92 
L 1082.88 0 
L 0 0 
z
" style="fill:#ffffff;"/>
  </g>
  <g id="axes_1">
   <g id="patch_2">
    <path d="M 33.64 772.04 
L 1064.16 772.04 
L 1064.16 14.76 
L 33.64 14.76 
z
" style="fill:#ffffff;"/>
   </g>
   <g id="matplotlib.axis_1">
    <g id="xtick_1">
     <g id="line2d_1">
      <path clip-path="url(#pd0e9df2257)" d="M 230.228458 772.04 
L 230.228458 14.76 
" style="fill:none;stroke:#808080;stroke-linecap:square;stroke-width:0.8;"/>
     </g>
     <g id="line2d_2">
      <defs>
       <path d="M 0 0 
L 0 3.5 
" id="m055e779438" style="stroke:#000000;stroke-width:0.8;"/>
      </defs>
      <g>
       <use style="stroke:#000000;stroke-width:0.8;" x="230.228458" xlink:href="#m055e779438" y="772.04"/>
      </g>
     </g>
     <g id="text_1">
      <!-- 42.0 -->
      <g transform="translate(219.095645 786.638438)scale(0.1 -0.1)">
       <defs>
        <path d="M 2419 4116 
L 825 1625 
L 2419 1625 
L 2419 4116 
z
M 2253 4666 
L 3047 4666 
L 3047 1625 
L 3713 1625 
L 3713 1100 
L 3047 1100 
L 3047 0 
L 2419 0 
L 2419 1100 
L 313 1100 
L 313 1709 
L 2253 4666 
z
" id="DejaVuSans-34" transform="scale(0.015625)"/>
        <path d="M 1228 531 
L 3431 531 
L 3431 0 
L 469 0 
L 469 531 
Q 828 903 1448 1529 
Q 2069 2156 2228 2338 
Q 2531 2678 2651 2914 
Q 2772 3150 2772 3378 
Q 2772 3750 2511 3984 
Q 2250 4219 1831 4219 
Q 1534 4219 1204 4116 
Q 875 4013 500 3803 
L 500 4441 
Q 881 4594 1212 4672 
Q 1544 4750 1819 4750 
Q 2544 4750 2975 4387 
Q 3406 4025 3406 3419 
Q 3406 3131 3298 2873 
Q 3191 2616 2906 2266 
Q 2828 2175 2409 1742 
Q 1991 1309 1228 531 
z
" id="DejaVuSans-32" transform="scale(0.015625)"/>
        <path d="M 684 794 
L 1344 794 
L 1344 0 
L 684 0 
L 684 794 
z
" id="DejaVuSans-2e" transform="scale(0.015625)"/>
        <path d="M 2034 4250 
Q 1547 4250 1301 3770 
Q 1056 3291 1056 2328 
Q 1056 1369 1301 889 
Q 1547 409 2034 409 
Q 2525 409 2770 889 
Q 3016 1369 3016 2328 
Q 3016 3291 2770 3770 
Q 2525 4250 2034 4250 
z
M 2034 4750 
Q 2819 4750 3233 4129 
Q 3647 3509 3647 2328 
Q 3647 1150 3233 529 
Q 2819 -91 2034 -91 
Q 1250 -91 836 529 
Q 422 1150 422 2328 
Q 422 3509 836 4129 
Q 1250 4750 2034 4750 
z
" id="DejaVuSans-30" transform="scale(0.015625)"/>
       </defs>
       <use xlink:href="#DejaVuSans-34"/>
       <use x="63.623047" xlink:href="#DejaVuSans-32"/>
       <use x="127.246094" xlink:href="#DejaVuSans-2e"/>
       <use x="159.033203" xlink:href="#DejaVuSans-30"/>
      </g>
     </g>
    </g>
    <g id="xtick_2">
     <g id="line2d_3">
      <path clip-path="url(#pd0e9df2257)" d="M 436.332458 772.04 
L 436.332458 14.76 
" style="fill:none;stroke:#808080;stroke-linecap:square;stroke-width:0.8;"/>
     </g>
     <g id="line2d_4">
      <g>
       <use style="stroke:#000000;stroke-width:0.8;" x="436.332458" xlink:href="#m055e779438" y="772.04"/>
      </g>
     </g>
     <g id="text_2">
      <!-- 42.2 -->
      <g transform="translate(425.199645 786.638438)scale(0.1 -0.1)">
       <use xlink:href="#DejaVuSans-34"/>
       <use x="63.623047" xlink:href="#DejaVuSans-32"/>
       <use x="127.246094" xlink:href="#DejaVuSans-2e"/>
       <use x="159.033203" xlink:href="#DejaVuSans-32"/>
      </g>
     </g>
    </g>
    <g id="xtick_3">
     <g id="line2d_5">
      <path clip-path="url(#pd0e9df2257)" d="M 642.436458 772.04 
L 642.436458 14.76 
" style="fill:none;stroke:#808080;stroke-linecap:square;stroke-width:0.8;"/>
     </g>
     <g id="line2d_6">
      <g>
       <use style="stroke:#000000;stroke-width:0.8;" x="642.436458" xlink:href="#m055e779438" y="772.04"/>
      </g>
     </g>
     <g id="text_3">
      <!-- 42.4 -->
      <g transform="translate(631.303645 786.638438)scale(0.1 -0.1)">
       <use xlink:href="#DejaVuSans-34"/>
       <use x="63.623047" xlink:href="#DejaVuSans-32"/>
       <use x="127.246094" xlink:href="#DejaVuSans-2e"/>
       <use x="159.033203" xlink:href="#DejaVuSans-34"/>
      </g>
     </g>
    </g>
    <g id="xtick_4">
     <g id="line2d_7">
      <path clip-path="url(#pd0e9df2257)" d="M 848.540458 772.04 
L 848.540458 14.76 
" style="fill:none;stroke:#808080;stroke-linecap:square;stroke-width:0.8;"/>
     </g>
     <g id="line2d_8">
      <g>
       <use style="stroke:#000000;stroke-width:0.8;" x="848.540458" xlink:href="#m055e779438" y="772.04"/>
      </g>
     </g>
     <g id="text_4">
      <!-- 42.6 -->
      <g transform="translate(837.407645 786.638438)scale(0.1 -0.1)">
       <defs>
        <path d="M 2113 2584 
Q 1688 2584 1439 2293 
Q 1191 2003 1191 1497 
Q 1191 994 1439 701 
Q 1688 409 2113 409 
Q 2538 409 2786 701 
Q 3034 994 3034 1497 
Q 3034 2003 2786 2293 
Q 2538 2584 2113 2584 
z
M 3366 4563 
L 3366 3988 
Q 3128 4100 2886 4159 
Q 2644 4219 2406 4219 
Q 1781 4219 1451 3797 
Q 1122 3375 1075 2522 
Q 1259 2794 1537 2939 
Q 1816 3084 2150 3084 
Q 2853 3084 3261 2657 
Q 3669 2231 3669 1497 
Q 3669 778 3244 343 
Q 2819 -91 2113 -91 
Q 1303 -91 875 529 
Q 447 1150 447 2328 
Q 447 3434 972 4092 
Q 1497 4750 2381 4750 
Q 2619 4750 2861 4703 
Q 3103 4656 3366 4563 
z
" id="DejaVuSans-36" transform="scale(0.015625)"/>
       </defs>
       <use xlink:href="#DejaVuSans-34"/>
       <use x="63.623047" xlink:href="#DejaVuSans-32"/>
       <use x="127.246094" xlink:href="#DejaVuSans-2e"/>
       <use x="159.033203" xlink:href="#DejaVuSans-36"/>
      </g>
     </g>
    </g>
    <g id="xtick_5">
     <g id="line2d_9">
      <path clip-path="url(#pd0e9df2257)" d="M 1054.644458 772.04 
L 1054.644458 14.76 
" style="fill:none;stroke:#808080;stroke-linecap:square;stroke-width:0.8;"/>
     </g>
     <g id="line2d_10">
      <g>
       <use style="stroke:#000000;stroke-width:0.8;" x="1054.644458" xlink:href="#m055e779438" y="772.04"/>
      </g>
     </g>
     <g id="text_5">
      <!-- 42.8 -->
      <g transform="translate(1043.511645 786.638438)scale(0.1 -0.1)">
       <defs>
        <path d="M 2034 2216 
Q 1584 2216 1326 1975 
Q 1069 1734 1069 1313 
Q 1069 891 1326 650 
Q 1584 409 2034 409 
Q 2484 409 2743 651 
Q 3003 894 3003 1313 
Q 3003 1734 2745 1975 
Q 2488 2216 2034 2216 
z
M 1403 2484 
Q 997 2584 770 2862 
Q 544 3141 544 3541 
Q 544 4100 942 4425 
Q 1341 4750 2034 4750 
Q 2731 4750 3128 4425 
Q 3525 4100 3525 3541 
Q 3525 3141 3298 2862 
Q 3072 2584 2669 2484 
Q 3125 2378 3379 2068 
Q 3634 1759 3634 1313 
Q 3634 634 3220 271 
Q 2806 -91 2034 -91 
Q 1263 -91 848 271 
Q 434 634 434 1313 
Q 434 1759 690 2068 
Q 947 2378 1403 2484 
z
M 1172 3481 
Q 1172 3119 1398 2916 
Q 1625 2713 2034 2713 
Q 2441 2713 2670 2916 
Q 2900 3119 2900 3481 
Q 2900 3844 2670 4047 
Q 2441 4250 2034 4250 
Q 1625 4250 1398 4047 
Q 1172 3844 1172 3481 
z
" id="DejaVuSans-38" transform="scale(0.015625)"/>
       </defs>
       <use xlink:href="#DejaVuSans-34"/>
       <use x="63.623047" xlink:href="#DejaVuSans-32"/>
       <use x="127.246094" xlink:href="#DejaVuSans-2e"/>
       <use x="159.033203" xlink:href="#DejaVuSans-38"/>
      </g>
     </g>
    </g>
   </g>
   <g id="matplotlib.axis_2">
    <g id="ytick_1">
     <g id="line2d_11">
      <path clip-path="url(#pd0e9df2257)" d="M 33.64 732.375637 
L 1064.16 732.375637 
" style="fill:none;stroke:#808080;stroke-linecap:square;stroke-width:0.8;"/>
     </g>
     <g id="line2d_12">
      <defs>
       <path d="M 0 0 
L -3.5 0 
" id="m28778770b6" style="stroke:#000000;stroke-width:0.8;"/>
      </defs>
      <g>
       <use style="stroke:#000000;stroke-width:0.8;" x="33.64" xlink:href="#m28778770b6" y="732.375637"/>
      </g>
     </g>
     <g id="text_6">
      <!-- −2500 -->
      <g transform="translate(-7.189687 736.174855)scale(0.1 -0.1)">
       <defs>
        <path d="M 678 2272 
L 4684 2272 
L 4684 1741 
L 678 1741 
L 678 2272 
z
" id="DejaVuSans-2212" transform="scale(0.015625)"/>
        <path d="M 691 4666 
L 3169 4666 
L 3169 4134 
L 1269 4134 
L 1269 2991 
Q 1406 3038 1543 3061 
Q 1681 3084 1819 3084 
Q 2600 3084 3056 2656 
Q 3513 2228 3513 1497 
Q 3513 744 3044 326 
Q 2575 -91 1722 -91 
Q 1428 -91 1123 -41 
Q 819 9 494 109 
L 494 744 
Q 775 591 1075 516 
Q 1375 441 1709 441 
Q 2250 441 2565 725 
Q 2881 1009 2881 1497 
Q 2881 1984 2565 2268 
Q 2250 2553 1709 2553 
Q 1456 2553 1204 2497 
Q 953 2441 691 2322 
L 691 4666 
z
" id="DejaVuSans-35" transform="scale(0.015625)"/>
       </defs>
       <use xlink:href="#DejaVuSans-2212"/>
       <use x="83.789062" xlink:href="#DejaVuSans-32"/>
       <use x="147.412109" xlink:href="#DejaVuSans-35"/>
       <use x="211.035156" xlink:href="#DejaVuSans-30"/>
       <use x="274.658203" xlink:href="#DejaVuSans-30"/>
      </g>
     </g>
    </g>
    <g id="ytick_2">
     <g id="line2d_13">
      <path clip-path="url(#pd0e9df2257)" d="M 33.64 641.628214 
L 1064.16 641.628214 
" style="fill:none;stroke:#808080;stroke-linecap:square;stroke-width:0.8;"/>
     </g>
     <g id="line2d_14">
      <g>
       <use style="stroke:#000000;stroke-width:0.8;" x="33.64" xlink:href="#m28778770b6" y="641.628214"/>
      </g>
     </g>
     <g id="text_7">
      <!-- 0 -->
      <g transform="translate(20.2775 645.427433)scale(0.1 -0.1)">
       <use xlink:href="#DejaVuSans-30"/>
      </g>
     </g>
    </g>
    <g id="ytick_3">
     <g id="line2d_15">
      <path clip-path="url(#pd0e9df2257)" d="M 33.64 550.880792 
L 1064.16 550.880792 
" style="fill:none;stroke:#808080;stroke-linecap:square;stroke-width:0.8;"/>
     </g>
     <g id="line2d_16">
      <g>
       <use style="stroke:#000000;stroke-width:0.8;" x="33.64" xlink:href="#m28778770b6" y="550.880792"/>
      </g>
     </g>
     <g id="text_8">
      <!-- 2500 -->
      <g transform="translate(1.19 554.680011)scale(0.1 -0.1)">
       <use xlink:href="#DejaVuSans-32"/>
       <use x="63.623047" xlink:href="#DejaVuSans-35"/>
       <use x="127.246094" xlink:href="#DejaVuSans-30"/>
       <use x="190.869141" xlink:href="#DejaVuSans-30"/>
      </g>
     </g>
    </g>
    <g id="ytick_4">
     <g id="line2d_17">
      <path clip-path="url(#pd0e9df2257)" d="M 33.64 460.13337 
L 1064.16 460.13337 
" style="fill:none;stroke:#808080;stroke-linecap:square;stroke-width:0.8;"/>
     </g>
     <g id="line2d_18">
      <g>
       <use style="stroke:#000000;stroke-width:0.8;" x="33.64" xlink:href="#m28778770b6" y="460.13337"/>
      </g>
     </g>
     <g id="text_9">
      <!-- 5000 -->
      <g transform="translate(1.19 463.932588)scale(0.1 -0.1)">
       <use xlink:href="#DejaVuSans-35"/>
       <use x="63.623047" xlink:href="#DejaVuSans-30"/>
       <use x="127.246094" xlink:href="#DejaVuSans-30"/>
       <use x="190.869141" xlink:href="#DejaVuSans-30"/>
      </g>
     </g>
    </g>
    <g id="ytick_5">
     <g id="line2d_19">
      <path clip-path="url(#pd0e9df2257)" d="M 33.64 369.385947 
L 1064.16 369.385947 
" style="fill:none;stroke:#808080;stroke-linecap:square;stroke-width:0.8;"/>
     </g>
     <g id="line2d_20">
      <g>
       <use style="stroke:#000000;stroke-width:0.8;" x="33.64" xlink:href="#m28778770b6" y="369.385947"/>
      </g>
     </g>
     <g id="text_10">
      <!-- 7500 -->
      <g transform="translate(1.19 373.185166)scale(0.1 -0.1)">
       <defs>
        <path d="M 525 4666 
L 3525 4666 
L 3525 4397 
L 1831 0 
L 1172 0 
L 2766 4134 
L 525 4134 
L 525 4666 
z
" id="DejaVuSans-37" transform="scale(0.015625)"/>
       </defs>
       <use xlink:href="#DejaVuSans-37"/>
       <use x="63.623047" xlink:href="#DejaVuSans-35"/>
       <use x="127.246094" xlink:href="#DejaVuSans-30"/>
       <use x="190.869141" xlink:href="#DejaVuSans-30"/>
      </g>
     </g>
    </g>
    <g id="ytick_6">
     <g id="line2d_21">
      <path clip-path="url(#pd0e9df2257)" d="M 33.64 278.638525 
L 1064.16 278.638525 
" style="fill:none;stroke:#808080;stroke-linecap:square;stroke-width:0.8;"/>
     </g>
     <g id="line2d_22">
      <g>
       <use style="stroke:#000000;stroke-width:0.8;" x="33.64" xlink:href="#m28778770b6" y="278.638525"/>
      </g>
     </g>
     <g id="text_11">
      <!-- 10000 -->
      <g transform="translate(-5.1725 282.437744)scale(0.1 -0.1)">
       <defs>
        <path d="M 794 531 
L 1825 531 
L 1825 4091 
L 703 3866 
L 703 4441 
L 1819 4666 
L 2450 4666 
L 2450 531 
L 3481 531 
L 3481 0 
L 794 0 
L 794 531 
z
" id="DejaVuSans-31" transform="scale(0.015625)"/>
       </defs>
       <use xlink:href="#DejaVuSans-31"/>
       <use x="63.623047" xlink:href="#DejaVuSans-30"/>
       <use x="127.246094" xlink:href="#DejaVuSans-30"/>
       <use x="190.869141" xlink:href="#DejaVuSans-30"/>
       <use x="254.492188" xlink:href="#DejaVuSans-30"/>
      </g>
     </g>
    </g>
    <g id="ytick_7">
     <g id="line2d_23">
      <path clip-path="url(#pd0e9df2257)" d="M 33.64 187.891103 
L 1064.16 187.891103 
" style="fill:none;stroke:#808080;stroke-linecap:square;stroke-width:0.8;"/>
     </g>
     <g id="line2d_24">
      <g>
       <use style="stroke:#000000;stroke-width:0.8;" x="33.64" xlink:href="#m28778770b6" y="187.891103"/>
      </g>
     </g>
     <g id="text_12">
      <!-- 12500 -->
      <g transform="translate(-5.1725 191.690321)scale(0.1 -0.1)">
       <use xlink:href="#DejaVuSans-31"/>
       <use x="63.623047" xlink:href="#DejaVuSans-32"/>
       <use x="127.246094" xlink:href="#DejaVuSans-35"/>
       <use x="190.869141" xlink:href="#DejaVuSans-30"/>
       <use x="254.492188" xlink:href="#DejaVuSans-30"/>
      </g>
     </g>
    </g>
    <g id="ytick_8">
     <g id="line2d_25">
      <path clip-path="url(#pd0e9df2257)" d="M 33.64 97.14368 
L 1064.16 97.14368 
" style="fill:none;stroke:#808080;stroke-linecap:square;stroke-width:0.8;"/>
     </g>
     <g id="line2d_26">
      <g>
       <use style="stroke:#000000;stroke-width:0.8;" x="33.64" xlink:href="#m28778770b6" y="97.14368"/>
      </g>
     </g>
     <g id="text_13">
      <!-- 15000 -->
      <g transform="translate(-5.1725 100.942899)scale(0.1 -0.1)">
       <use xlink:href="#DejaVuSans-31"/>
       <use x="63.623047" xlink:href="#DejaVuSans-35"/>
       <use x="127.246094" xlink:href="#DejaVuSans-30"/>
       <use x="190.869141" xlink:href="#DejaVuSans-30"/>
       <use x="254.492188" xlink:href="#DejaVuSans-30"/>
      </g>
     </g>
    </g>
   </g>
   <g id="line2d_27">
    <path clip-path="url(#pd0e9df2257)" d="M 32.262322 641.17847 
L 1068.63822 641.17847 
L 1068.63822 641.17847 
" style="fill:none;stroke:#0000ff;stroke-linecap:square;"/>
   </g>
   <g id="line2d_28">
    <path clip-path="url(#pd0e9df2257)" d="M 32.266499 133.587845 
L 34.167934 134.930907 
L 43.923012 135.547989 
L 43.934069 134.495319 
L 49.618962 137.036247 
L 49.629036 137.617031 
L 60.599814 140.557247 
L 60.610379 143.315969 
L 66.320579 145.094618 
L 66.339743 147.962237 
L 70.054162 147.780742 
L 76.020868 147.962237 
L 76.037575 149.59569 
L 79.38124 150.829855 
L 83.667883 152.535907 
L 83.687292 150.357969 
L 90.30509 150.612061 
L 90.323272 150.249072 
L 93.029849 148.615618 
L 97.68872 148.760814 
L 103.345359 147.49035 
L 103.371402 148.833412 
L 106.588288 150.757257 
L 113.510257 148.869711 
L 113.529667 148.506721 
L 119.981375 147.925938 
L 119.999065 146.256185 
L 128.306999 145.856897 
L 128.319284 146.473979 
L 136.348355 147.85334 
L 136.366045 147.091061 
L 141.331297 147.381453 
L 141.342108 149.014907 
L 146.840765 149.341598 
L 151.422733 150.866154 
L 151.431578 151.156546 
L 158.053798 150.430567 
L 158.063135 152.717402 
L 165.266178 155.839113 
L 165.275023 158.234845 
L 171.710024 157.399969 
L 171.719115 158.488938 
L 173.646102 160.88467 
L 173.655192 161.102463 
L 179.403229 160.231288 
L 184.053255 162.372927 
L 188.758071 162.481824 
L 188.772813 159.541608 
L 193.434386 161.973639 
L 193.44446 163.861185 
L 197.901123 160.739474 
L 208.938239 160.630577 
L 209.037009 157.545165 
L 213.080659 157.109577 
L 213.091469 159.795701 
L 217.430936 158.997123 
L 222.180714 161.175061 
L 222.189559 162.699618 
L 226.142548 160.412783 
L 231.813683 159.614206 
L 236.387052 157.073278 
L 236.401793 156.020608 
L 240.695315 156.928082 
L 245.584894 156.492494 
L 245.597424 154.423453 
L 250.167353 153.407082 
L 250.17841 153.915268 
L 255.089855 154.314556 
L 264.674667 154.604948 
L 264.684495 151.592134 
L 270.570613 151.410639 
L 270.580686 151.918824 
L 279.405809 151.083948 
L 279.415637 150.430567 
L 279.423745 151.338041 
L 282.865442 151.701031 
L 282.875515 153.915268 
L 288.646648 153.588577 
L 295.896128 156.238402 
L 295.908904 158.343742 
L 305.216081 157.182175 
L 305.225172 159.759402 
L 305.233525 158.307443 
L 312.029206 160.376484 
L 312.043211 161.066165 
L 316.52813 162.227732 
L 316.53722 162.372927 
L 326.084195 162.191433 
L 326.094515 161.175061 
L 328.019536 163.280402 
L 328.028135 165.240546 
L 333.623596 165.131649 
L 339.103579 164.369371 
L 339.11439 165.09535 
L 350.997189 166.692505 
L 351.019301 166.365814 
L 351.028392 167.962969 
L 357.99434 170.03201 
L 358.004413 171.411371 
L 362.408498 172.681835 
L 362.418817 174.097494 
L 369.470021 174.024896 
L 369.479849 178.235577 
L 380.130978 177.473298 
L 380.140806 175.876144 
L 386.189328 175.876144 
L 386.210212 173.734505 
L 392.770518 172.572938 
L 392.781328 172.391443 
L 392.840541 172.935927 
L 399.098641 172.50034 
L 405.970733 174.315288 
L 405.981298 175.694649 
L 405.990143 174.859773 
L 410.296441 175.476855 
L 410.305778 176.965113 
L 414.690944 180.994298 
L 419.089378 181.974371 
L 424.507447 180.849103 
L 424.518012 182.083268 
L 429.129218 184.442701 
L 429.138554 185.204979 
L 437.270325 185.495371 
L 438.434183 186.693237 
L 442.590607 186.620639 
L 442.600926 188.471886 
L 447.429818 190.976515 
L 452.623567 191.448402 
L 452.633641 194.352319 
L 457.182931 194.352319 
L 457.191531 196.893247 
L 461.498812 195.223494 
L 466.086677 195.513886 
L 466.098716 197.800721 
L 470.150228 199.651969 
L 474.625565 199.688267 
L 479.218098 200.740938 
L 479.227188 199.833463 
L 485.20667 201.249123 
L 485.21699 203.753752 
L 495.924137 203.681154 
L 495.933473 201.938804 
L 498.146941 202.628484 
L 498.158488 203.13667 
L 505.00896 203.027773 
L 505.022227 201.35802 
L 509.30543 199.760865 
L 519.839117 198.381505 
L 519.882359 194.606412 
L 521.701977 194.824206 
L 526.58787 193.916731 
L 533.41844 193.95303 
L 533.428022 195.296092 
L 533.43613 194.388618 
L 537.899919 194.642711 
L 544.611081 193.481144 
L 544.619926 195.477587 
L 553.641113 198.236309 
L 553.650941 197.83702 
L 562.010963 198.490401 
L 562.030373 200.886133 
L 576.725398 202.229195 
L 576.74014 203.862649 
L 576.753161 203.46336 
L 577.59221 204.842721 
L 577.605723 208.182226 
L 577.6185 207.202154 
L 583.064577 208.436319 
L 588.686573 210.069773 
L 588.716302 214.135257 
L 593.248394 215.659814 
L 598.136499 216.022803 
L 604.097799 218.200742 
L 604.115489 217.365865 
L 609.977775 216.422092 
L 609.995956 215.369422 
L 614.390213 213.917463 
L 623.744072 212.029917 
L 623.76127 213.518175 
L 625.430277 211.848422 
L 631.88346 211.013546 
L 631.923508 207.528845 
L 639.537108 206.693968 
L 640.751088 205.459804 
L 640.760424 206.113185 
L 645.550742 206.839164 
L 649.963672 208.508917 
L 655.575102 207.928133 
L 655.595495 208.944505 
L 660.161739 211.158742 
L 665.595778 211.013546 
L 665.612976 214.02636 
L 670.13868 215.986505 
L 679.927174 216.821381 
L 679.939213 217.148072 
L 684.528306 218.854123 
L 684.540836 219.217113 
L 689.753504 218.890422 
L 689.764069 220.777968 
L 696.113813 223.137401 
L 705.489785 223.790783 
L 705.520742 224.988649 
L 712.1066 227.965164 
L 714.79475 227.529577 
L 714.803104 228.872638 
L 720.607405 230.179401 
L 727.118326 232.647731 
L 727.137244 238.128876 
L 731.926088 239.363041 
L 737.622283 239.580834 
L 737.633585 241.214288 
L 742.110396 242.230659 
L 742.121943 243.900412 
L 746.049625 243.755216 
L 756.431718 241.613577 
L 756.447934 241.359484 
L 756.461202 239.145247 
L 762.02939 240.560906 
L 762.045852 240.234216 
L 773.255445 240.633504 
L 773.274364 239.03635 
L 776.711393 238.818556 
L 776.726872 238.056278 
L 776.741122 239.217845 
L 780.694848 238.564463 
L 787.534263 238.419267 
L 787.543599 238.600762 
L 789.564687 238.491865 
L 794.481783 240.197917 
L 794.490137 242.230659 
L 802.118725 244.626391 
L 808.579032 243.97301 
L 808.595985 247.530309 
L 814.659003 250.180133 
L 814.672271 252.684762 
L 819.416398 253.81003 
L 819.426226 252.648463 
L 826.2052 253.773731 
L 826.215027 253.918927 
L 836.551175 259.654164 
L 836.568865 260.561638 
L 841.357709 259.690463 
L 841.369748 260.48904 
L 845.839925 262.26769 
L 851.129495 260.815731 
L 851.138585 261.868401 
L 854.339747 264.264133 
L 860.060758 263.647051 
L 860.073288 263.102566 
L 868.349037 265.026412 
L 868.360339 266.732463 
L 872.820688 264.73602 
L 872.830024 266.115381 
L 877.315926 266.805061 
L 877.332142 267.240649 
L 881.811901 268.293319 
L 889.194302 267.966628 
L 895.450682 268.365917 
L 895.461247 268.9467 
L 895.469846 267.966628 
L 900.411512 269.055597 
L 900.426008 269.454886 
L 904.939427 270.326061 
L 909.661196 268.9467 
L 909.671761 270.870546 
L 914.811703 270.434958 
L 919.443301 272.685494 
L 919.45706 270.943143 
L 924.973161 268.910401 
L 924.983235 270.652752 
L 929.443338 270.834247 
L 934.207612 272.358803 
L 934.21744 273.484071 
L 941.2512 272.866989 
L 941.26201 273.229979 
L 946.389667 274.93603 
L 951.581696 275.807205 
L 951.592753 274.93603 
L 954.927818 273.411473 
L 954.945262 272.177308 
L 960.321563 274.57304 
L 963.635744 276.242793 
L 963.645081 276.133896 
L 975.309211 277.40436 
L 975.318793 275.262721 
L 978.695626 274.536741 
L 989.497121 277.113968 
L 989.507194 277.585855 
L 989.516039 277.440659 
L 993.980565 278.602226 
L 994.006855 280.271979 
L 998.346567 280.017886 
L 1003.947925 278.783721 
L 1014.138621 280.417174 
L 1014.154591 280.23568 
L 1014.186286 280.707566 
L 1019.631135 281.433546 
L 1023.334743 282.522515 
L 1023.343588 281.941731 
L 1028.029977 284.047071 
L 1034.569398 285.390133 
L 1034.580946 284.990844 
L 1036.931511 287.96736 
L 1041.280069 287.132484 
L 1041.288914 287.422875 
L 1045.66155 289.528216 
L 1050.282829 290.653484 
L 1055.95814 290.254195 
L 1055.969442 292.032844 
L 1055.97927 289.927504 
L 1060.266159 291.052772 
L 1068.651487 292.323236 
L 1068.651487 292.323236 
" style="fill:none;stroke:#ff0000;stroke-linecap:square;"/>
   </g>
   <g id="patch_3">
    <path d="M 33.64 772.04 
L 33.64 14.76 
" style="fill:none;stroke:#000000;stroke-linecap:square;stroke-linejoin:miter;stroke-width:0.8;"/>
   </g>
   <g id="patch_4">
    <path d="M 1064.16 772.04 
L 1064.16 14.76 
" style="fill:none;stroke:#000000;stroke-linecap:square;stroke-linejoin:miter;stroke-width:0.8;"/>
   </g>
   <g id="patch_5">
    <path d="M 33.64 772.04 
L 1064.16 772.04 
" style="fill:none;stroke:#000000;stroke-linecap:square;stroke-linejoin:miter;stroke-width:0.8;"/>
   </g>
   <g id="patch_6">
    <path d="M 33.64 14.76 
L 1064.16 14.76 
" style="fill:none;stroke:#000000;stroke-linecap:square;stroke-linejoin:miter;stroke-width:0.8;"/>
   </g>
   <g id="legend_1">
    <g id="patch_7">
     <path d="M 40.64 52.6725 
L 218.907188 52.6725 
Q 220.907188 52.6725 220.907188 50.6725 
L 220.907188 21.76 
Q 220.907188 19.76 218.907188 19.76 
L 40.64 19.76 
Q 38.64 19.76 38.64 21.76 
L 38.64 50.6725 
Q 38.64 52.6725 40.64 52.6725 
z
" style="fill:#ffffff;opacity:0.8;stroke:#cccccc;stroke-linejoin:miter;"/>
    </g>
    <g id="line2d_29">
     <path d="M 42.64 27.858438 
L 62.64 27.858438 
" style="fill:none;stroke:#ff0000;stroke-linecap:square;"/>
    </g>
    <g id="line2d_30"/>
    <g id="text_14">
     <!-- /sensor_data/accelZ -->
     <g transform="translate(70.64 31.358438)scale(0.1 -0.1)">
      <defs>
       <path d="M 1625 4666 
L 2156 4666 
L 531 -594 
L 0 -594 
L 1625 4666 
z
" id="DejaVuSans-2f" transform="scale(0.015625)"/>
       <path d="M 2834 3397 
L 2834 2853 
Q 2591 2978 2328 3040 
Q 2066 3103 1784 3103 
Q 1356 3103 1142 2972 
Q 928 2841 928 2578 
Q 928 2378 1081 2264 
Q 1234 2150 1697 2047 
L 1894 2003 
Q 2506 1872 2764 1633 
Q 3022 1394 3022 966 
Q 3022 478 2636 193 
Q 2250 -91 1575 -91 
Q 1294 -91 989 -36 
Q 684 19 347 128 
L 347 722 
Q 666 556 975 473 
Q 1284 391 1588 391 
Q 1994 391 2212 530 
Q 2431 669 2431 922 
Q 2431 1156 2273 1281 
Q 2116 1406 1581 1522 
L 1381 1569 
Q 847 1681 609 1914 
Q 372 2147 372 2553 
Q 372 3047 722 3315 
Q 1072 3584 1716 3584 
Q 2034 3584 2315 3537 
Q 2597 3491 2834 3397 
z
" id="DejaVuSans-73" transform="scale(0.015625)"/>
       <path d="M 3597 1894 
L 3597 1613 
L 953 1613 
Q 991 1019 1311 708 
Q 1631 397 2203 397 
Q 2534 397 2845 478 
Q 3156 559 3463 722 
L 3463 178 
Q 3153 47 2828 -22 
Q 2503 -91 2169 -91 
Q 1331 -91 842 396 
Q 353 884 353 1716 
Q 353 2575 817 3079 
Q 1281 3584 2069 3584 
Q 2775 3584 3186 3129 
Q 3597 2675 3597 1894 
z
M 3022 2063 
Q 3016 2534 2758 2815 
Q 2500 3097 2075 3097 
Q 1594 3097 1305 2825 
Q 1016 2553 972 2059 
L 3022 2063 
z
" id="DejaVuSans-65" transform="scale(0.015625)"/>
       <path d="M 3513 2113 
L 3513 0 
L 2938 0 
L 2938 2094 
Q 2938 2591 2744 2837 
Q 2550 3084 2163 3084 
Q 1697 3084 1428 2787 
Q 1159 2491 1159 1978 
L 1159 0 
L 581 0 
L 581 3500 
L 1159 3500 
L 1159 2956 
Q 1366 3272 1645 3428 
Q 1925 3584 2291 3584 
Q 2894 3584 3203 3211 
Q 3513 2838 3513 2113 
z
" id="DejaVuSans-6e" transform="scale(0.015625)"/>
       <path d="M 1959 3097 
Q 1497 3097 1228 2736 
Q 959 2375 959 1747 
Q 959 1119 1226 758 
Q 1494 397 1959 397 
Q 2419 397 2687 759 
Q 2956 1122 2956 1747 
Q 2956 2369 2687 2733 
Q 2419 3097 1959 3097 
z
M 1959 3584 
Q 2709 3584 3137 3096 
Q 3566 2609 3566 1747 
Q 3566 888 3137 398 
Q 2709 -91 1959 -91 
Q 1206 -91 779 398 
Q 353 888 353 1747 
Q 353 2609 779 3096 
Q 1206 3584 1959 3584 
z
" id="DejaVuSans-6f" transform="scale(0.015625)"/>
       <path d="M 2631 2963 
Q 2534 3019 2420 3045 
Q 2306 3072 2169 3072 
Q 1681 3072 1420 2755 
Q 1159 2438 1159 1844 
L 1159 0 
L 581 0 
L 581 3500 
L 1159 3500 
L 1159 2956 
Q 1341 3275 1631 3429 
Q 1922 3584 2338 3584 
Q 2397 3584 2469 3576 
Q 2541 3569 2628 3553 
L 2631 2963 
z
" id="DejaVuSans-72" transform="scale(0.015625)"/>
       <path d="M 3263 -1063 
L 3263 -1509 
L -63 -1509 
L -63 -1063 
L 3263 -1063 
z
" id="DejaVuSans-5f" transform="scale(0.015625)"/>
       <path d="M 2906 2969 
L 2906 4863 
L 3481 4863 
L 3481 0 
L 2906 0 
L 2906 525 
Q 2725 213 2448 61 
Q 2172 -91 1784 -91 
Q 1150 -91 751 415 
Q 353 922 353 1747 
Q 353 2572 751 3078 
Q 1150 3584 1784 3584 
Q 2172 3584 2448 3432 
Q 2725 3281 2906 2969 
z
M 947 1747 
Q 947 1113 1208 752 
Q 1469 391 1925 391 
Q 2381 391 2643 752 
Q 2906 1113 2906 1747 
Q 2906 2381 2643 2742 
Q 2381 3103 1925 3103 
Q 1469 3103 1208 2742 
Q 947 2381 947 1747 
z
" id="DejaVuSans-64" transform="scale(0.015625)"/>
       <path d="M 2194 1759 
Q 1497 1759 1228 1600 
Q 959 1441 959 1056 
Q 959 750 1161 570 
Q 1363 391 1709 391 
Q 2188 391 2477 730 
Q 2766 1069 2766 1631 
L 2766 1759 
L 2194 1759 
z
M 3341 1997 
L 3341 0 
L 2766 0 
L 2766 531 
Q 2569 213 2275 61 
Q 1981 -91 1556 -91 
Q 1019 -91 701 211 
Q 384 513 384 1019 
Q 384 1609 779 1909 
Q 1175 2209 1959 2209 
L 2766 2209 
L 2766 2266 
Q 2766 2663 2505 2880 
Q 2244 3097 1772 3097 
Q 1472 3097 1187 3025 
Q 903 2953 641 2809 
L 641 3341 
Q 956 3463 1253 3523 
Q 1550 3584 1831 3584 
Q 2591 3584 2966 3190 
Q 3341 2797 3341 1997 
z
" id="DejaVuSans-61" transform="scale(0.015625)"/>
       <path d="M 1172 4494 
L 1172 3500 
L 2356 3500 
L 2356 3053 
L 1172 3053 
L 1172 1153 
Q 1172 725 1289 603 
Q 1406 481 1766 481 
L 2356 481 
L 2356 0 
L 1766 0 
Q 1100 0 847 248 
Q 594 497 594 1153 
L 594 3053 
L 172 3053 
L 172 3500 
L 594 3500 
L 594 4494 
L 1172 4494 
z
" id="DejaVuSans-74" transform="scale(0.015625)"/>
       <path d="M 3122 3366 
L 3122 2828 
Q 2878 2963 2633 3030 
Q 2388 3097 2138 3097 
Q 1578 3097 1268 2742 
Q 959 2388 959 1747 
Q 959 1106 1268 751 
Q 1578 397 2138 397 
Q 2388 397 2633 464 
Q 2878 531 3122 666 
L 3122 134 
Q 2881 22 2623 -34 
Q 2366 -91 2075 -91 
Q 1284 -91 818 406 
Q 353 903 353 1747 
Q 353 2603 823 3093 
Q 1294 3584 2113 3584 
Q 2378 3584 2631 3529 
Q 2884 3475 3122 3366 
z
" id="DejaVuSans-63" transform="scale(0.015625)"/>
       <path d="M 603 4863 
L 1178 4863 
L 1178 0 
L 603 0 
L 603 4863 
z
" id="DejaVuSans-6c" transform="scale(0.015625)"/>
       <path d="M 359 4666 
L 4025 4666 
L 4025 4184 
L 1075 531 
L 4097 531 
L 4097 0 
L 288 0 
L 288 481 
L 3238 4134 
L 359 4134 
L 359 4666 
z
" id="DejaVuSans-5a" transform="scale(0.015625)"/>
      </defs>
      <use xlink:href="#DejaVuSans-2f"/>
      <use x="33.691406" xlink:href="#DejaVuSans-73"/>
      <use x="85.791016" xlink:href="#DejaVuSans-65"/>
      <use x="147.314453" xlink:href="#DejaVuSans-6e"/>
      <use x="210.693359" xlink:href="#DejaVuSans-73"/>
      <use x="262.792969" xlink:href="#DejaVuSans-6f"/>
      <use x="323.974609" xlink:href="#DejaVuSans-72"/>
      <use x="365.087891" xlink:href="#DejaVuSans-5f"/>
      <use x="415.087891" xlink:href="#DejaVuSans-64"/>
      <use x="478.564453" xlink:href="#DejaVuSans-61"/>
      <use x="539.84375" xlink:href="#DejaVuSans-74"/>
      <use x="579.052734" xlink:href="#DejaVuSans-61"/>
      <use x="640.332031" xlink:href="#DejaVuSans-2f"/>
      <use x="674.023438" xlink:href="#DejaVuSans-61"/>
      <use x="735.302734" xlink:href="#DejaVuSans-63"/>
      <use x="790.283203" xlink:href="#DejaVuSans-63"/>
      <use x="845.263672" xlink:href="#DejaVuSans-65"/>
      <use x="906.787109" xlink:href="#DejaVuSans-6c"/>
      <use x="934.570312" xlink:href="#DejaVuSans-5a"/>
     </g>
    </g>
    <g id="line2d_31">
     <path d="M 42.64 42.814687 
L 62.64 42.814687 
" style="fill:none;stroke:#0000ff;stroke-linecap:square;"/>
    </g>
    <g id="line2d_32"/>
    <g id="text_15">
     <!-- /sensor_data/battery_voltage -->
     <g transform="translate(70.64 46.314687)scale(0.1 -0.1)">
      <defs>
       <path d="M 3116 1747 
Q 3116 2381 2855 2742 
Q 2594 3103 2138 3103 
Q 1681 3103 1420 2742 
Q 1159 2381 1159 1747 
Q 1159 1113 1420 752 
Q 1681 391 2138 391 
Q 2594 391 2855 752 
Q 3116 1113 3116 1747 
z
M 1159 2969 
Q 1341 3281 1617 3432 
Q 1894 3584 2278 3584 
Q 2916 3584 3314 3078 
Q 3713 2572 3713 1747 
Q 3713 922 3314 415 
Q 2916 -91 2278 -91 
Q 1894 -91 1617 61 
Q 1341 213 1159 525 
L 1159 0 
L 581 0 
L 581 4863 
L 1159 4863 
L 1159 2969 
z
" id="DejaVuSans-62" transform="scale(0.015625)"/>
       <path d="M 2059 -325 
Q 1816 -950 1584 -1140 
Q 1353 -1331 966 -1331 
L 506 -1331 
L 506 -850 
L 844 -850 
Q 1081 -850 1212 -737 
Q 1344 -625 1503 -206 
L 1606 56 
L 191 3500 
L 800 3500 
L 1894 763 
L 2988 3500 
L 3597 3500 
L 2059 -325 
z
" id="DejaVuSans-79" transform="scale(0.015625)"/>
       <path d="M 191 3500 
L 800 3500 
L 1894 563 
L 2988 3500 
L 3597 3500 
L 2284 0 
L 1503 0 
L 191 3500 
z
" id="DejaVuSans-76" transform="scale(0.015625)"/>
       <path d="M 2906 1791 
Q 2906 2416 2648 2759 
Q 2391 3103 1925 3103 
Q 1463 3103 1205 2759 
Q 947 2416 947 1791 
Q 947 1169 1205 825 
Q 1463 481 1925 481 
Q 2391 481 2648 825 
Q 2906 1169 2906 1791 
z
M 3481 434 
Q 3481 -459 3084 -895 
Q 2688 -1331 1869 -1331 
Q 1566 -1331 1297 -1286 
Q 1028 -1241 775 -1147 
L 775 -588 
Q 1028 -725 1275 -790 
Q 1522 -856 1778 -856 
Q 2344 -856 2625 -561 
Q 2906 -266 2906 331 
L 2906 616 
Q 2728 306 2450 153 
Q 2172 0 1784 0 
Q 1141 0 747 490 
Q 353 981 353 1791 
Q 353 2603 747 3093 
Q 1141 3584 1784 3584 
Q 2172 3584 2450 3431 
Q 2728 3278 2906 2969 
L 2906 3500 
L 3481 3500 
L 3481 434 
z
" id="DejaVuSans-67" transform="scale(0.015625)"/>
      </defs>
      <use xlink:href="#DejaVuSans-2f"/>
      <use x="33.691406" xlink:href="#DejaVuSans-73"/>
      <use x="85.791016" xlink:href="#DejaVuSans-65"/>
      <use x="147.314453" xlink:href="#DejaVuSans-6e"/>
      <use x="210.693359" xlink:href="#DejaVuSans-73"/>
      <use x="262.792969" xlink:href="#DejaVuSans-6f"/>
      <use x="323.974609" xlink:href="#DejaVuSans-72"/>
      <use x="365.087891" xlink:href="#DejaVuSans-5f"/>
      <use x="415.087891" xlink:href="#DejaVuSans-64"/>
      <use x="478.564453" xlink:href="#DejaVuSans-61"/>
      <use x="539.84375" xlink:href="#DejaVuSans-74"/>
      <use x="579.052734" xlink:href="#DejaVuSans-61"/>
      <use x="640.332031" xlink:href="#DejaVuSans-2f"/>
      <use x="674.023438" xlink:href="#DejaVuSans-62"/>
      <use x="737.5" xlink:href="#DejaVuSans-61"/>
      <use x="798.779297" xlink:href="#DejaVuSans-74"/>
      <use x="837.988281" xlink:href="#DejaVuSans-74"/>
      <use x="877.197266" xlink:href="#DejaVuSans-65"/>
      <use x="938.720703" xlink:href="#DejaVuSans-72"/>
      <use x="979.833984" xlink:href="#DejaVuSans-79"/>
      <use x="1039.013672" xlink:href="#DejaVuSans-5f"/>
      <use x="1089.013672" xlink:href="#DejaVuSans-76"/>
      <use x="1148.193359" xlink:href="#DejaVuSans-6f"/>
      <use x="1209.375" xlink:href="#DejaVuSans-6c"/>
      <use x="1237.158203" xlink:href="#DejaVuSans-74"/>
      <use x="1276.367188" xlink:href="#DejaVuSans-61"/>
      <use x="1337.646484" xlink:href="#DejaVuSans-67"/>
      <use x="1401.123047" xlink:href="#DejaVuSans-65"/>
     </g>
    </g>
   </g>
  </g>
 </g>
 <defs>
  <clipPath id="pd0e9df2257">
   <rect height="757.28" width="1030.52" x="33.64" y="14.76"/>
  </clipPath>
 </defs>
</svg>
